<mxfile host="65bd71144e">
    <diagram id="Nai419dnWy3LmcfTkDrx" name="Página-1">
        <mxGraphModel dx="933" dy="526" grid="1" gridSize="10" guides="1" tooltips="1" connect="1" arrows="1" fold="1" page="1" pageScale="1" pageWidth="1169" pageHeight="827" math="0" shadow="0">
            <root>
                <mxCell id="0"/>
                <mxCell id="1" parent="0"/>
                <mxCell id="3" value="EMPLEADOS" style="rounded=0;whiteSpace=wrap;html=1;" vertex="1" parent="1">
                    <mxGeometry x="240" y="200" width="160" height="80" as="geometry"/>
                </mxCell>
                <mxCell id="5" value="" style="edgeStyle=none;html=1;endArrow=none;endFill=0;" edge="1" parent="1" source="6" target="22">
                    <mxGeometry relative="1" as="geometry"/>
                </mxCell>
                <mxCell id="6" value="ADMINISTRATIVOS" style="rounded=0;whiteSpace=wrap;html=1;" vertex="1" parent="1">
                    <mxGeometry x="440" width="160" height="80" as="geometry"/>
                </mxCell>
                <mxCell id="8" value="" style="edgeStyle=none;html=1;endArrow=none;endFill=0;" edge="1" parent="1" source="9" target="20">
                    <mxGeometry relative="1" as="geometry"/>
                </mxCell>
                <mxCell id="93" style="edgeStyle=none;html=1;exitX=0.5;exitY=0;exitDx=0;exitDy=0;entryX=0.5;entryY=1;entryDx=0;entryDy=0;endArrow=none;endFill=0;" edge="1" parent="1" source="9" target="92">
                    <mxGeometry relative="1" as="geometry"/>
                </mxCell>
                <mxCell id="9" value="PENITENCIARIOS" style="rounded=0;whiteSpace=wrap;html=1;" vertex="1" parent="1">
                    <mxGeometry x="440" y="400" width="160" height="80" as="geometry"/>
                </mxCell>
                <mxCell id="12" value="ADMINISTRATIVAS" style="rounded=0;whiteSpace=wrap;html=1;" vertex="1" parent="1">
                    <mxGeometry x="840" width="160" height="80" as="geometry"/>
                </mxCell>
                <mxCell id="14" value="PABELLONES" style="rounded=0;whiteSpace=wrap;html=1;" vertex="1" parent="1">
                    <mxGeometry x="840" y="400" width="160" height="80" as="geometry"/>
                </mxCell>
                <mxCell id="16" value="INTERNOS" style="rounded=0;whiteSpace=wrap;html=1;" vertex="1" parent="1">
                    <mxGeometry x="440" y="640" width="160" height="80" as="geometry"/>
                </mxCell>
                <mxCell id="17" value="" style="edgeStyle=none;html=1;endArrow=none;endFill=0;" edge="1" parent="1" source="18" target="27">
                    <mxGeometry relative="1" as="geometry"/>
                </mxCell>
                <mxCell id="18" value="INCIDENTES" style="rounded=0;whiteSpace=wrap;html=1;" vertex="1" parent="1">
                    <mxGeometry x="840" y="720" width="160" height="80" as="geometry"/>
                </mxCell>
                <mxCell id="19" value="" style="edgeStyle=none;html=1;endArrow=none;endFill=0;" edge="1" parent="1" source="20" target="14">
                    <mxGeometry relative="1" as="geometry"/>
                </mxCell>
                <mxCell id="20" value="trabajan_en 2" style="rhombus;whiteSpace=wrap;html=1;" vertex="1" parent="1">
                    <mxGeometry x="640" y="400" width="160" height="80" as="geometry"/>
                </mxCell>
                <mxCell id="21" value="" style="edgeStyle=none;html=1;endArrow=none;endFill=0;" edge="1" parent="1" source="22" target="12">
                    <mxGeometry relative="1" as="geometry"/>
                </mxCell>
                <mxCell id="22" value="trabajan_en 1" style="rhombus;whiteSpace=wrap;html=1;" vertex="1" parent="1">
                    <mxGeometry x="640" width="160" height="80" as="geometry"/>
                </mxCell>
                <mxCell id="23" value="" style="edgeStyle=none;html=1;endArrow=none;endFill=0;exitX=1;exitY=0;exitDx=0;exitDy=0;entryX=0.25;entryY=1;entryDx=0;entryDy=0;" edge="1" parent="1" source="25" target="14">
                    <mxGeometry relative="1" as="geometry"/>
                </mxCell>
                <mxCell id="24" value="" style="edgeStyle=none;html=1;endArrow=none;endFill=0;exitX=0;exitY=1;exitDx=0;exitDy=0;entryX=1;entryY=0.25;entryDx=0;entryDy=0;" edge="1" parent="1" source="25" target="16">
                    <mxGeometry relative="1" as="geometry">
                        <Array as="points">
                            <mxPoint x="640" y="660"/>
                        </Array>
                    </mxGeometry>
                </mxCell>
                <mxCell id="25" value="reciden_en" style="rhombus;whiteSpace=wrap;html=1;" vertex="1" parent="1">
                    <mxGeometry x="640" y="560" width="160" height="80" as="geometry"/>
                </mxCell>
                <mxCell id="26" value="" style="edgeStyle=none;html=1;endArrow=none;endFill=0;exitX=0;exitY=0;exitDx=0;exitDy=0;entryX=1;entryY=0.75;entryDx=0;entryDy=0;" edge="1" parent="1" source="27" target="16">
                    <mxGeometry relative="1" as="geometry">
                        <Array as="points">
                            <mxPoint x="640" y="700"/>
                        </Array>
                    </mxGeometry>
                </mxCell>
                <mxCell id="27" value="registran" style="rhombus;whiteSpace=wrap;html=1;" vertex="1" parent="1">
                    <mxGeometry x="640" y="720" width="160" height="80" as="geometry"/>
                </mxCell>
                <mxCell id="29" style="html=1;labelBorderColor=none;strokeWidth=1;endArrow=oval;endFill=1;endSize=6;targetPerimeterSpacing=0;align=left;exitX=0;exitY=0.5;exitDx=0;exitDy=0;" edge="1" parent="1" source="16" target="30">
                    <mxGeometry relative="1" as="geometry">
                        <mxPoint x="212.5" y="650" as="sourcePoint"/>
                    </mxGeometry>
                </mxCell>
                <mxCell id="30" value="DNI" style="text;html=1;strokeColor=none;fillColor=none;align=left;verticalAlign=middle;whiteSpace=wrap;rounded=0;container=0;spacingLeft=8;" vertex="1" parent="1">
                    <mxGeometry x="380" y="670" width="40" height="20" as="geometry"/>
                </mxCell>
                <mxCell id="31" style="html=1;labelBorderColor=none;strokeWidth=1;endArrow=oval;endFill=0;endSize=6;targetPerimeterSpacing=0;align=left;exitX=0;exitY=0.75;exitDx=0;exitDy=0;" edge="1" parent="1" source="16" target="32">
                    <mxGeometry relative="1" as="geometry">
                        <mxPoint x="222.5" y="710" as="sourcePoint"/>
                    </mxGeometry>
                </mxCell>
                <mxCell id="32" value="Nombre y apellido" style="text;html=1;strokeColor=none;fillColor=none;align=left;verticalAlign=middle;whiteSpace=wrap;rounded=0;container=0;spacingLeft=8;" vertex="1" parent="1">
                    <mxGeometry x="300" y="690" width="120" height="20" as="geometry"/>
                </mxCell>
                <mxCell id="33" style="html=1;labelBorderColor=none;strokeWidth=1;endArrow=oval;endFill=0;endSize=6;targetPerimeterSpacing=0;align=left;exitX=0.25;exitY=1;exitDx=0;exitDy=0;" edge="1" parent="1" source="16" target="34">
                    <mxGeometry relative="1" as="geometry">
                        <mxPoint x="412.5" y="770" as="sourcePoint"/>
                    </mxGeometry>
                </mxCell>
                <mxCell id="34" value="Apodo" style="text;html=1;strokeColor=none;fillColor=none;align=left;verticalAlign=middle;whiteSpace=wrap;rounded=0;container=0;spacingLeft=8;" vertex="1" parent="1">
                    <mxGeometry x="450" y="740" width="60" height="20" as="geometry"/>
                </mxCell>
                <mxCell id="35" style="html=1;labelBorderColor=none;strokeWidth=1;endArrow=oval;endFill=0;endSize=6;targetPerimeterSpacing=0;align=left;exitX=0.5;exitY=1;exitDx=0;exitDy=0;" edge="1" parent="1" source="16" target="36">
                    <mxGeometry relative="1" as="geometry">
                        <mxPoint x="472.5" y="780" as="sourcePoint"/>
                    </mxGeometry>
                </mxCell>
                <mxCell id="36" value="Número de causa" style="text;html=1;strokeColor=none;fillColor=none;align=left;verticalAlign=middle;whiteSpace=wrap;rounded=0;container=0;spacingLeft=8;" vertex="1" parent="1">
                    <mxGeometry x="465" y="760" width="110" height="20" as="geometry"/>
                </mxCell>
                <mxCell id="37" style="html=1;labelBorderColor=none;strokeWidth=1;endArrow=oval;endFill=0;endSize=6;targetPerimeterSpacing=0;align=left;exitX=0.75;exitY=1;exitDx=0;exitDy=0;" edge="1" parent="1" source="16" target="38">
                    <mxGeometry relative="1" as="geometry">
                        <mxPoint x="402.5" y="850" as="sourcePoint"/>
                    </mxGeometry>
                </mxCell>
                <mxCell id="38" value="Delitos" style="text;html=1;strokeColor=none;fillColor=none;align=left;verticalAlign=middle;whiteSpace=wrap;rounded=0;container=0;spacingLeft=8;" vertex="1" parent="1">
                    <mxGeometry x="530" y="740" width="60" height="20" as="geometry"/>
                </mxCell>
                <mxCell id="39" value="(1, n)" style="text;html=1;strokeColor=none;fillColor=none;align=center;verticalAlign=middle;whiteSpace=wrap;rounded=0;labelBackgroundColor=none;fontSize=12;" vertex="1" parent="1">
                    <mxGeometry x="580" y="740" width="40" height="20" as="geometry"/>
                </mxCell>
                <mxCell id="40" style="html=1;labelBorderColor=none;strokeWidth=1;endArrow=oval;endFill=1;endSize=6;targetPerimeterSpacing=0;align=left;exitX=0;exitY=0.25;exitDx=0;exitDy=0;" edge="1" parent="1" source="3" target="41">
                    <mxGeometry relative="1" as="geometry">
                        <mxPoint x="90" y="130" as="sourcePoint"/>
                    </mxGeometry>
                </mxCell>
                <mxCell id="41" value="Legajo" style="text;html=1;strokeColor=none;fillColor=none;align=left;verticalAlign=middle;whiteSpace=wrap;rounded=0;container=0;spacingLeft=8;" vertex="1" parent="1">
                    <mxGeometry x="160" y="210" width="60" height="20" as="geometry"/>
                </mxCell>
                <mxCell id="42" style="html=1;labelBorderColor=none;strokeWidth=1;endArrow=oval;endFill=0;endSize=6;targetPerimeterSpacing=0;align=left;exitX=0;exitY=0.5;exitDx=0;exitDy=0;" edge="1" parent="1" source="3" target="43">
                    <mxGeometry relative="1" as="geometry">
                        <mxPoint x="260" y="180" as="sourcePoint"/>
                    </mxGeometry>
                </mxCell>
                <mxCell id="43" value="Teléfonos" style="text;html=1;strokeColor=none;fillColor=none;align=left;verticalAlign=middle;whiteSpace=wrap;rounded=0;container=0;spacingLeft=8;" vertex="1" parent="1">
                    <mxGeometry x="150" y="230" width="70" height="20" as="geometry"/>
                </mxCell>
                <mxCell id="44" style="html=1;labelBorderColor=none;strokeWidth=1;endArrow=oval;endFill=0;endSize=6;targetPerimeterSpacing=0;align=left;exitX=0;exitY=1;exitDx=0;exitDy=0;entryX=0.5;entryY=0;entryDx=0;entryDy=0;" edge="1" parent="1" source="22" target="45">
                    <mxGeometry relative="1" as="geometry">
                        <mxPoint x="590" y="-10" as="sourcePoint"/>
                        <mxPoint x="680" y="120" as="targetPoint"/>
                    </mxGeometry>
                </mxCell>
                <mxCell id="45" value="Desde" style="text;html=1;strokeColor=none;fillColor=none;align=center;verticalAlign=middle;whiteSpace=wrap;rounded=0;container=0;spacingLeft=0;spacing=2;" vertex="1" parent="1">
                    <mxGeometry x="650" y="80" width="60" height="20" as="geometry"/>
                </mxCell>
                <mxCell id="46" style="html=1;labelBorderColor=none;strokeWidth=1;endArrow=oval;endFill=0;endSize=6;targetPerimeterSpacing=0;align=left;exitX=1;exitY=1;exitDx=0;exitDy=0;entryX=0.5;entryY=0;entryDx=0;entryDy=0;" edge="1" parent="1" source="22" target="47">
                    <mxGeometry relative="1" as="geometry">
                        <mxPoint x="740" y="-10" as="sourcePoint"/>
                        <mxPoint x="750" y="80" as="targetPoint"/>
                    </mxGeometry>
                </mxCell>
                <mxCell id="47" value="Hasta" style="text;html=1;strokeColor=none;fillColor=none;align=center;verticalAlign=middle;whiteSpace=wrap;rounded=0;container=0;spacingLeft=0;spacing=2;" vertex="1" parent="1">
                    <mxGeometry x="730" y="80" width="60" height="20" as="geometry"/>
                </mxCell>
                <mxCell id="48" style="html=1;labelBorderColor=none;strokeWidth=1;endArrow=oval;endFill=0;endSize=6;targetPerimeterSpacing=0;align=left;exitX=0;exitY=0;exitDx=0;exitDy=0;entryX=0.5;entryY=1;entryDx=0;entryDy=0;" edge="1" parent="1" source="20" target="49">
                    <mxGeometry relative="1" as="geometry">
                        <mxPoint x="680" y="420" as="sourcePoint"/>
                    </mxGeometry>
                </mxCell>
                <mxCell id="49" value="Desde" style="text;html=1;strokeColor=none;fillColor=none;align=center;verticalAlign=middle;whiteSpace=wrap;rounded=0;container=0;spacingLeft=0;spacing=2;" vertex="1" parent="1">
                    <mxGeometry x="650" y="380" width="60" height="20" as="geometry"/>
                </mxCell>
                <mxCell id="50" style="html=1;labelBorderColor=none;strokeWidth=1;endArrow=oval;endFill=0;endSize=6;targetPerimeterSpacing=0;align=left;exitX=1;exitY=0;exitDx=0;exitDy=0;entryX=0.5;entryY=1;entryDx=0;entryDy=0;" edge="1" parent="1" source="20" target="51">
                    <mxGeometry relative="1" as="geometry">
                        <mxPoint x="760" y="420" as="sourcePoint"/>
                    </mxGeometry>
                </mxCell>
                <mxCell id="51" value="Hasta" style="text;html=1;strokeColor=none;fillColor=none;align=center;verticalAlign=middle;whiteSpace=wrap;rounded=0;container=0;spacingLeft=0;spacing=2;" vertex="1" parent="1">
                    <mxGeometry x="730" y="380" width="60" height="20" as="geometry"/>
                </mxCell>
                <mxCell id="52" value="0..1" style="text;html=1;strokeColor=none;fillColor=none;align=center;verticalAlign=middle;whiteSpace=wrap;rounded=0;labelBackgroundColor=none;fontFamily=Helvetica;fontSize=12;container=0;" vertex="1" parent="1">
                    <mxGeometry x="770" y="380" width="40" height="20" as="geometry"/>
                </mxCell>
                <mxCell id="53" value="0..1" style="text;html=1;strokeColor=none;fillColor=none;align=center;verticalAlign=middle;whiteSpace=wrap;rounded=0;labelBackgroundColor=none;fontFamily=Helvetica;fontSize=12;container=0;" vertex="1" parent="1">
                    <mxGeometry x="770" y="80" width="40" height="20" as="geometry"/>
                </mxCell>
                <mxCell id="54" style="html=1;labelBorderColor=none;strokeWidth=1;endArrow=oval;endFill=0;endSize=6;targetPerimeterSpacing=0;align=left;exitX=0;exitY=1;exitDx=0;exitDy=0;entryX=0.5;entryY=0;entryDx=0;entryDy=0;" edge="1" parent="1" target="55">
                    <mxGeometry relative="1" as="geometry">
                        <mxPoint x="680" y="620" as="sourcePoint"/>
                        <mxPoint x="680" y="680" as="targetPoint"/>
                    </mxGeometry>
                </mxCell>
                <mxCell id="55" value="Desde" style="text;html=1;strokeColor=none;fillColor=none;align=center;verticalAlign=middle;whiteSpace=wrap;rounded=0;container=0;spacingLeft=0;spacing=2;" vertex="1" parent="1">
                    <mxGeometry x="650" y="640" width="60" height="20" as="geometry"/>
                </mxCell>
                <mxCell id="56" style="html=1;labelBorderColor=none;strokeWidth=1;endArrow=oval;endFill=0;endSize=6;targetPerimeterSpacing=0;align=left;exitX=1;exitY=1;exitDx=0;exitDy=0;entryX=0.5;entryY=0;entryDx=0;entryDy=0;" edge="1" parent="1" target="57">
                    <mxGeometry relative="1" as="geometry">
                        <mxPoint x="760" y="620" as="sourcePoint"/>
                        <mxPoint x="750" y="640" as="targetPoint"/>
                    </mxGeometry>
                </mxCell>
                <mxCell id="57" value="Hasta" style="text;html=1;strokeColor=none;fillColor=none;align=center;verticalAlign=middle;whiteSpace=wrap;rounded=0;container=0;spacingLeft=0;spacing=2;" vertex="1" parent="1">
                    <mxGeometry x="730" y="640" width="60" height="20" as="geometry"/>
                </mxCell>
                <mxCell id="58" value="0..1" style="text;html=1;strokeColor=none;fillColor=none;align=center;verticalAlign=middle;whiteSpace=wrap;rounded=0;labelBackgroundColor=none;fontFamily=Helvetica;fontSize=12;container=0;" vertex="1" parent="1">
                    <mxGeometry x="770" y="640" width="40" height="20" as="geometry"/>
                </mxCell>
                <mxCell id="59" value="(1, n)" style="text;html=1;strokeColor=none;fillColor=none;align=center;verticalAlign=middle;whiteSpace=wrap;rounded=0;labelBackgroundColor=none;fontSize=12;" vertex="1" parent="1">
                    <mxGeometry x="800" y="740" width="40" height="20" as="geometry"/>
                </mxCell>
                <mxCell id="60" value="(1, n)" style="text;html=1;strokeColor=none;fillColor=none;align=center;verticalAlign=middle;whiteSpace=wrap;rounded=0;labelBackgroundColor=none;fontSize=12;" vertex="1" parent="1">
                    <mxGeometry x="600" y="680" width="40" height="20" as="geometry"/>
                </mxCell>
                <mxCell id="61" style="html=1;labelBorderColor=none;strokeWidth=1;endArrow=oval;endFill=0;endSize=6;targetPerimeterSpacing=0;align=left;exitX=1;exitY=0.25;exitDx=0;exitDy=0;" edge="1" parent="1" source="18" target="62">
                    <mxGeometry relative="1" as="geometry">
                        <mxPoint x="770" y="950" as="sourcePoint"/>
                    </mxGeometry>
                </mxCell>
                <mxCell id="62" value="Fecha" style="text;html=1;strokeColor=none;fillColor=none;align=left;verticalAlign=middle;whiteSpace=wrap;rounded=0;container=0;spacingLeft=8;" vertex="1" parent="1">
                    <mxGeometry x="1020" y="730" width="60" height="20" as="geometry"/>
                </mxCell>
                <mxCell id="71" style="html=1;labelBorderColor=none;strokeWidth=1;endArrow=oval;endFill=1;endSize=6;targetPerimeterSpacing=0;align=left;exitX=0.25;exitY=0;exitDx=0;exitDy=0;" edge="1" parent="1" source="9" target="72">
                    <mxGeometry relative="1" as="geometry">
                        <mxPoint x="350" y="420" as="sourcePoint"/>
                    </mxGeometry>
                </mxCell>
                <mxCell id="72" value="Matrícula" style="text;html=1;strokeColor=none;fillColor=none;align=left;verticalAlign=middle;whiteSpace=wrap;rounded=0;container=0;spacingLeft=8;" vertex="1" parent="1">
                    <mxGeometry x="440" y="360" width="80" height="20" as="geometry"/>
                </mxCell>
                <mxCell id="73" style="html=1;labelBorderColor=none;strokeWidth=1;endArrow=oval;endFill=1;endSize=6;targetPerimeterSpacing=0;align=left;exitX=1;exitY=0.25;exitDx=0;exitDy=0;" edge="1" parent="1" source="12" target="74">
                    <mxGeometry relative="1" as="geometry">
                        <mxPoint x="1030" y="40" as="sourcePoint"/>
                    </mxGeometry>
                </mxCell>
                <mxCell id="74" value="Número" style="text;html=1;strokeColor=none;fillColor=none;align=left;verticalAlign=middle;whiteSpace=wrap;rounded=0;container=0;spacingLeft=8;" vertex="1" parent="1">
                    <mxGeometry x="1020" y="10" width="80" height="20" as="geometry"/>
                </mxCell>
                <mxCell id="75" style="html=1;labelBorderColor=none;strokeWidth=1;endArrow=oval;endFill=1;endSize=6;targetPerimeterSpacing=0;align=left;exitX=1;exitY=0.25;exitDx=0;exitDy=0;" edge="1" parent="1" target="76">
                    <mxGeometry relative="1" as="geometry">
                        <mxPoint x="1000" y="420" as="sourcePoint"/>
                    </mxGeometry>
                </mxCell>
                <mxCell id="76" value="Número" style="text;html=1;strokeColor=none;fillColor=none;align=left;verticalAlign=middle;whiteSpace=wrap;rounded=0;container=0;spacingLeft=8;" vertex="1" parent="1">
                    <mxGeometry x="1020" y="410" width="80" height="20" as="geometry"/>
                </mxCell>
                <mxCell id="77" style="html=1;labelBorderColor=none;strokeWidth=1;endArrow=oval;endFill=0;endSize=6;targetPerimeterSpacing=0;align=left;exitX=1;exitY=0.5;exitDx=0;exitDy=0;" edge="1" parent="1" source="14" target="78">
                    <mxGeometry relative="1" as="geometry">
                        <mxPoint x="1060" y="390" as="sourcePoint"/>
                    </mxGeometry>
                </mxCell>
                <mxCell id="78" value="Descripción" style="text;html=1;strokeColor=none;fillColor=none;align=left;verticalAlign=middle;whiteSpace=wrap;rounded=0;container=0;spacingLeft=8;" vertex="1" parent="1">
                    <mxGeometry x="1020" y="430" width="80" height="20" as="geometry"/>
                </mxCell>
                <mxCell id="79" style="html=1;labelBorderColor=none;strokeWidth=1;endArrow=oval;endFill=0;endSize=6;targetPerimeterSpacing=0;align=left;exitX=1;exitY=0.75;exitDx=0;exitDy=0;" edge="1" parent="1" source="14" target="80">
                    <mxGeometry relative="1" as="geometry">
                        <mxPoint x="980" y="460" as="sourcePoint"/>
                    </mxGeometry>
                </mxCell>
                <mxCell id="80" value="Capacidad" style="text;html=1;strokeColor=none;fillColor=none;align=left;verticalAlign=middle;whiteSpace=wrap;rounded=0;container=0;spacingLeft=8;" vertex="1" parent="1">
                    <mxGeometry x="1020" y="450" width="80" height="20" as="geometry"/>
                </mxCell>
                <mxCell id="84" style="html=1;labelBorderColor=none;strokeWidth=1;endArrow=oval;endFill=1;endSize=6;targetPerimeterSpacing=0;align=left;exitX=0;exitY=0.5;exitDx=0;exitDy=0;" edge="1" parent="1" target="85">
                    <mxGeometry relative="1" as="geometry">
                        <mxPoint x="240" y="260" as="sourcePoint"/>
                    </mxGeometry>
                </mxCell>
                <mxCell id="85" value="DNI" style="text;html=1;strokeColor=none;fillColor=none;align=left;verticalAlign=middle;whiteSpace=wrap;rounded=0;container=0;spacingLeft=8;" vertex="1" parent="1">
                    <mxGeometry x="180" y="250" width="40" height="20" as="geometry"/>
                </mxCell>
                <mxCell id="86" style="html=1;labelBorderColor=none;strokeWidth=1;endArrow=oval;endFill=0;endSize=6;targetPerimeterSpacing=0;align=left;exitX=0;exitY=0.75;exitDx=0;exitDy=0;" edge="1" parent="1" target="87">
                    <mxGeometry relative="1" as="geometry">
                        <mxPoint x="240" y="280" as="sourcePoint"/>
                    </mxGeometry>
                </mxCell>
                <mxCell id="87" value="Nombre y apellido" style="text;html=1;strokeColor=none;fillColor=none;align=left;verticalAlign=middle;whiteSpace=wrap;rounded=0;container=0;spacingLeft=8;" vertex="1" parent="1">
                    <mxGeometry x="100" y="270" width="120" height="20" as="geometry"/>
                </mxCell>
                <mxCell id="88" style="html=1;labelBorderColor=none;strokeWidth=1;endArrow=oval;endFill=0;endSize=6;targetPerimeterSpacing=0;align=left;exitX=1;exitY=0.5;exitDx=0;exitDy=0;" edge="1" parent="1" target="89">
                    <mxGeometry relative="1" as="geometry">
                        <mxPoint x="1000" y="40" as="sourcePoint"/>
                    </mxGeometry>
                </mxCell>
                <mxCell id="89" value="Descripción" style="text;html=1;strokeColor=none;fillColor=none;align=left;verticalAlign=middle;whiteSpace=wrap;rounded=0;container=0;spacingLeft=8;" vertex="1" parent="1">
                    <mxGeometry x="1020" y="30" width="80" height="20" as="geometry"/>
                </mxCell>
                <mxCell id="98" value="" style="edgeStyle=none;html=1;endArrow=none;endFill=0;" edge="1" parent="1" source="90" target="97">
                    <mxGeometry relative="1" as="geometry"/>
                </mxCell>
                <mxCell id="90" value="TÍTULOS" style="rounded=0;whiteSpace=wrap;html=1;" vertex="1" parent="1">
                    <mxGeometry x="40" width="160" height="80" as="geometry"/>
                </mxCell>
                <mxCell id="95" style="edgeStyle=none;html=1;exitX=0;exitY=1;exitDx=0;exitDy=0;entryX=1;entryY=0.25;entryDx=0;entryDy=0;endArrow=none;endFill=0;" edge="1" parent="1" source="91" target="3">
                    <mxGeometry relative="1" as="geometry"/>
                </mxCell>
                <mxCell id="96" value="" style="edgeStyle=none;html=1;endArrow=none;endFill=0;" edge="1" parent="1" source="91" target="6">
                    <mxGeometry relative="1" as="geometry"/>
                </mxCell>
                <mxCell id="91" value="es_un 1" style="rhombus;whiteSpace=wrap;html=1;" vertex="1" parent="1">
                    <mxGeometry x="440" y="120" width="160" height="80" as="geometry"/>
                </mxCell>
                <mxCell id="94" style="edgeStyle=none;html=1;entryX=1;entryY=0.75;entryDx=0;entryDy=0;endArrow=none;endFill=0;" edge="1" parent="1" source="92" target="3">
                    <mxGeometry relative="1" as="geometry"/>
                </mxCell>
                <mxCell id="92" value="es_un 2" style="rhombus;whiteSpace=wrap;html=1;" vertex="1" parent="1">
                    <mxGeometry x="440" y="280" width="160" height="80" as="geometry"/>
                </mxCell>
                <mxCell id="99" value="" style="edgeStyle=none;html=1;endArrow=none;endFill=0;" edge="1" parent="1" source="97" target="6">
                    <mxGeometry relative="1" as="geometry"/>
                </mxCell>
                <mxCell id="97" value="tienen" style="rhombus;whiteSpace=wrap;html=1;" vertex="1" parent="1">
                    <mxGeometry x="240" width="160" height="80" as="geometry"/>
                </mxCell>
                <mxCell id="100" value="(1, 1)" style="text;html=1;strokeColor=none;fillColor=none;align=center;verticalAlign=middle;whiteSpace=wrap;rounded=0;labelBackgroundColor=none;fontSize=12;" vertex="1" parent="1">
                    <mxGeometry x="200" y="20" width="40" height="20" as="geometry"/>
                </mxCell>
                <mxCell id="103" value="(1, n)" style="text;html=1;strokeColor=none;fillColor=none;align=center;verticalAlign=middle;whiteSpace=wrap;rounded=0;labelBackgroundColor=none;fontSize=12;" vertex="1" parent="1">
                    <mxGeometry x="400" y="20" width="40" height="20" as="geometry"/>
                </mxCell>
                <mxCell id="104" value="(1, 1)" style="text;html=1;strokeColor=none;fillColor=none;align=center;verticalAlign=middle;whiteSpace=wrap;rounded=0;labelBackgroundColor=none;fontSize=12;" vertex="1" parent="1">
                    <mxGeometry x="440" y="200" width="40" height="20" as="geometry"/>
                </mxCell>
                <mxCell id="105" value="(1, 1)" style="text;html=1;strokeColor=none;fillColor=none;align=center;verticalAlign=middle;whiteSpace=wrap;rounded=0;labelBackgroundColor=none;fontSize=12;" vertex="1" parent="1">
                    <mxGeometry x="440" y="260" width="40" height="20" as="geometry"/>
                </mxCell>
                <mxCell id="106" value="(1, 1)" style="text;html=1;strokeColor=none;fillColor=none;align=center;verticalAlign=middle;whiteSpace=wrap;rounded=0;labelBackgroundColor=none;fontSize=12;" vertex="1" parent="1">
                    <mxGeometry x="520" y="370" width="40" height="20" as="geometry"/>
                </mxCell>
                <mxCell id="109" value="(1, 1)" style="text;html=1;strokeColor=none;fillColor=none;align=center;verticalAlign=middle;whiteSpace=wrap;rounded=0;labelBackgroundColor=none;fontSize=12;" vertex="1" parent="1">
                    <mxGeometry x="520" y="90" width="40" height="20" as="geometry"/>
                </mxCell>
                <mxCell id="112" value="(1, n)" style="text;html=1;strokeColor=none;fillColor=none;align=center;verticalAlign=middle;whiteSpace=wrap;rounded=0;labelBackgroundColor=none;fontSize=12;" vertex="1" parent="1">
                    <mxGeometry x="600" y="640" width="40" height="20" as="geometry"/>
                </mxCell>
            </root>
        </mxGraphModel>
    </diagram>
</mxfile>